<svg xmlns="http://www.w3.org/2000/svg" height="534.7" viewBox="0 -1 401.5 401" width="534.7"><path d="M370.6 251a10 10 0 0 0-10 10v88.8a30 30 0 0 1-30 30H50a30 30 0 0 1-30-30V89.2a30 30 0 0 1 30-30h88.8a10 10 0 1 0 0-20H50a50 50 0 0 0-50 50v260.6a50 50 0 0 0 50 50h280.6a50 50 0 0 0 50-50V261a10 10 0 0 0-10-10zm6-237.6a45 45 0 0 0-63.6 0L134.6 191.8a10 10 0 0 0-2.6 4.4L108.6 281a10 10 0 0 0 12.3 12.3l84.7-23.5a10 10 0 0 0 4.4-2.6L388.4 88.8a45 45 0 0 0 0-63.6zm-220.3 185l146-146 47 47-146 146zm-9.4 19l37.6 37.6-52 14.4zM374.2 74.7l-10.6 10.6-47-47L327 27.6a25 25 0 0 1 35.4 0L374 39.3a25 25 0 0 1 0 35.4zm0 0"/></svg>