<svg xmlns="http://www.w3.org/2000/svg" viewBox="0 0 512 512"><path d="M320 277.3c-11.8 0-21.3 9.6-21.3 21.3V384c0 11.8-9.6 21.3-21.3 21.3h-64v-320a43 43 0 0 0-29.1-40.6l-6.3-2h99.4c11.8 0 21.3 9.6 21.3 21.3v64c0 11.8 9.5 21.3 21.3 21.3s21.3-9.6 21.3-21.3V64a64 64 0 0 0-64-64H48c-.8 0-1.5.4-2.3.5-1-.1-2-.5-3-.5C19 0 0 19 0 42.7v384a43 43 0 0 0 29.1 40.6L157.4 510a44 44 0 0 0 13.2 2c23.5 0 42.7-19 42.7-42.7V448h64a64 64 0 0 0 64-64v-85.3c0-11.8-9.5-21.3-21.3-21.3zm185.8-79L420.4 113c-6-6-15.3-8-23.2-4.6-8 3.3-13.2 11-13.2 19.7v64h-85.3c-11.8 0-21.3 9.6-21.3 21.3s9.6 21.3 21.3 21.3H384v64c0 8.6 5.2 16.4 13.2 19.7s17.2 1.5 23.3-4.6l85.3-85.3c8.3-8.3 8.3-21.8 0-30.2zm0 0"/></svg>