<svg xmlns="http://www.w3.org/2000/svg" viewBox="0 0 80 80"><path d="M40 41.8h.7v.7H40zM40 0a40 40 0 1 0 0 80 40 40 0 1 0 0-80zm25.4 41.2c0 .8-.3 1.6-1 2.2s-1.4 1-2.2 1h-1.5c-.4 1.5-1 3-1.7 4.5-.3.5-.5 1-.8 1.4l1 1c.6.6 1 1.5 1 2.4a3 3 0 0 1-.9 2.2l-2.7 2.7c-1.2 1.2-3.2 1.2-4.4 0l-1-1-6 2.5v1.5a3 3 0 0 1-3 3h-3.8a3 3 0 0 1-3-3V60a21 21 0 0 1-6-2.5l-1 1c-1.2 1.2-3.2 1.2-4.4 0l-3-3c-.6-.6-1-1.4-1-2.3-.1-.8.3-1.7 1-2.3l1-1-.8-1.4c-.7-1.5-1.3-3-1.7-4.5H18c-.8 0-1.6-.3-2.2-1s-1-1.4-1-2.2v-4c0-.7.3-1.4.8-2 .6-.7 1.4-1 2.3-1h1.5c.4-1.5 1-3 1.7-4.5L22 28l-1-1c-.6-.6-1-1.5-1-2.4a3 3 0 0 1 .9-2.2l2.7-2.7c1.5-.8 3.5-.8 4.7.2l1 1a21 21 0 0 1 6-2.5V17a3 3 0 0 1 3-3H42a3 3 0 0 1 3 3v1.5a22 22 0 0 1 6 2.5l1-1c1.2-1.2 3.2-1.2 4.4 0l2.7 2.7c.6.6 1 1.4 1 2.3.1.8-.3 1.7-1 2.3l-1 1a24 24 0 0 1 .8 1.4c.7 1.5 1.3 3 1.7 4.5H62c1 0 1.7.4 2.3 1 .5.6.8 1.3.8 2v4z"/><path d="M35.6 35.2h-2v13.5H47V35.2H35.6zm7.2 8.3a1 1 0 0 1-1 1h-.4v1.3a1 1 0 1 1-2 0v-1.3H39a1 1 0 0 1-1-1v-2.7a1 1 0 0 1 1-1h2.7a1 1 0 0 1 1 1v2.7zm19.5-7.3H60a1 1 0 0 1-1-.8 19 19 0 0 0-1.7-4.8c-.4-.7-.7-1.3-1-2a1 1 0 0 1 .1-1.3L58 26c.2-.2.3-.5.3-.8 0-.4-.1-.7-.3-1l-2.7-2.7c-.4-.4-1-.4-1.6 0L52 23a1 1 0 0 1-1.3.1 19 19 0 0 0-6.8-2.8 1 1 0 0 1-.8-1V17a1 1 0 0 0-1-1h-3.8a1 1 0 0 0-1 1v2.3a1 1 0 0 1-.8 1 19 19 0 0 0-6.8 2.8 1 1 0 0 1-1.3-.1l-1.6-1.6c-.4-.4-1-.4-1.6 0L22.6 24c-.2.2-.3.5-.3.8 0 .4.1.7.3 1l1.6 1.6a1 1 0 0 1 .1 1.3l-1 2a23 23 0 0 0-1.7 4.8 1 1 0 0 1-1 .8h-2.3c-.4 0-.7.2-.8.4s-.3.4-.3.7v4c0 .3.1.6.3.8s.5.3.8.3h2.3a1 1 0 0 1 1 .8 23 23 0 0 0 1.7 4.8l1 2a1 1 0 0 1-.1 1.3L22.6 53c-.2.2-.3.5-.3.8 0 .4.1.7.3 1l2.7 2.7c.4.4 1 .4 1.6 0l1.6-1.6c.2-.2.4-.3.7-.3.2 0 .4.1.6.2a19 19 0 0 0 6.8 2.8 1 1 0 0 1 .8 1V62a1 1 0 0 0 1 1H42a1 1 0 0 0 1-1v-3a1 1 0 0 1 .8-1c2.4-.5 4.7-1.4 6.8-2.8.4-.3 1-.2 1.3.1l1.6 1.6c.4.4 1 .4 1.6 0l2.7-2.7c.2-.2.3-.5.3-.8 0-.4-.1-.7-.3-1L56.4 51a1 1 0 0 1-.1-1.3c.4-.6.7-1.2 1-2a19 19 0 0 0 1.7-4.8 1 1 0 0 1 1-.8h2.3c.3 0 .6-.1.8-.3s.3-.5.3-.8v-4c0-.3-.2-.6-.3-.7s-.4-.4-.8-.4zM49 49.7a1 1 0 0 1-1 1H32.5a1 1 0 0 1-1-1V34.2a1 1 0 0 1 1-1h2v-4.5a1 1 0 0 1 1-1H45a1 1 0 0 1 1 1V31a1 1 0 1 1-2 0v-1.2h-7.5v3.5H48a1 1 0 0 1 1 1v15.5z"/></svg>