<svg xmlns="http://www.w3.org/2000/svg" viewBox="0 0 512 512" xmlns:v="https://vecta.io/nano"><path d="M256 189c-11 0-19.7 9-19.7 19.7V226h39.5v-17.3c0-11-9-19.7-19.7-19.7zm-34 67h68v52.7h-68zm290 61.4V194.6l-47.2-7.2a219 219 0 0 0-12.6-30.5l28.3-38.5-86.8-86.8L355 60l-30.5-12.6-7-47.4H194.6l-7.2 47.2a219 219 0 0 0-30.5 12.6l-38.5-28.3-86.8 86.8L60 157l-12.6 30.5-47.4 7v122.8l47.2 7.2a219 219 0 0 0 12.6 30.5l-28.3 38.5 86.8 86.8L157 452a219 219 0 0 0 30.5 12.6l7.2 47.2h122.8l7.2-47.2a219 219 0 0 0 30.5-12.6l38.5 28.3 86.8-86.8L452 355a219 219 0 0 0 12.6-30.5l47.2-7.2zM256 421A165 165 0 0 1 91.1 256 165 165 0 0 1 256 91.1 165 165 0 0 1 420.9 256 165 165 0 0 1 256 420.9zm0-300a135 135 0 0 0-134.9 135A135 135 0 0 0 256 390.9 135 135 0 0 0 390.9 256 135 135 0 0 0 256 121.1zm-64 217.7V226h14.3v-17.3A50 50 0 0 1 256 159a50 50 0 0 1 49.7 49.7V226H320v112.7H192z"/></svg>